<svg width="20" height="20" xmlns="http://www.w3.org/2000/svg" xmlns:xlink="http://www.w3.org/1999/xlink"><defs><linearGradient x1="50%" y1="100%" x2="50%" y2="0%" id="a"><stop stop-color="#703FCE" offset="0%"/><stop stop-color="#813CC1" offset="100%"/></linearGradient><path d="M8.282 7.597c.162.22.378.425.646.614.269.188.573.367.914.537.34.17.689.344 1.046.524.357.18.706.373 1.046.579.34.205.645.437.913.696.269.258.484.55.647.877.163.326.244.699.244 1.118a2.916 2.916 0 0 1-.688 1.914 3.576 3.576 0 0 1-.758.673 4.619 4.619 0 0 1-.944.483 5.972 5.972 0 0 1-1.066.29A6.444 6.444 0 0 1 9.16 16a6.12 6.12 0 0 1-1.541-.194 4.315 4.315 0 0 1-1.332-.585 3.05 3.05 0 0 1-.935-.978C5.117 13.85 5 13.392 5 12.867c0-.272.043-.51.13-.716.087-.205.194-.377.323-.514.13-.138.27-.242.422-.312.152-.07.294-.105.425-.105a.52.52 0 0 1 .34.112c.09.074.136.19.136.346 0 .072-.009.148-.026.229l-.054.264c-.019.095-.037.2-.054.314-.017.115-.025.24-.025.375 0 .297.068.553.203.77.135.215.315.393.539.533.224.14.482.244.774.312.291.067.594.101.906.101a4.68 4.68 0 0 0 1.104-.133c.368-.09.697-.22.989-.394.292-.174.528-.387.71-.639.182-.252.273-.541.273-.868 0-.3-.081-.57-.244-.807a2.834 2.834 0 0 0-.647-.658 6.595 6.595 0 0 0-.916-.569l-1.047-.54a20.83 20.83 0 0 1-1.046-.575 5.628 5.628 0 0 1-.916-.664 3.051 3.051 0 0 1-.647-.81 2.097 2.097 0 0 1-.244-1.02c0-.357.085-.707.257-1.053.17-.345.429-.654.773-.928.345-.273.775-.494 1.29-.664C9.245 4.084 9.85 4 10.543 4c.44 0 .87.066 1.29.197a3.78 3.78 0 0 1 1.126.56c.33.24.595.529.796.864.201.335.301.705.301 1.112 0 .242-.04.49-.123.744a3.324 3.324 0 0 1-.397.794 1.947 1.947 0 0 1-.58.594c-.21.13-.398.194-.567.194a.44.44 0 0 1-.311-.11c-.08-.075-.12-.186-.12-.335 0-.11.025-.24.075-.39.051-.15.138-.324.26-.518a2.62 2.62 0 0 0 .254-.525 1.43 1.43 0 0 0 .083-.454.955.955 0 0 0-.175-.57 1.38 1.38 0 0 0-.482-.41 2.586 2.586 0 0 0-.739-.247 5.03 5.03 0 0 0-.944-.083c-.38 0-.712.044-.993.13-.28.088-.516.2-.704.338a1.398 1.398 0 0 0-.418.46c-.091.17-.137.337-.137.502 0 .28.082.53.245.75z" id="c"/><filter x="-50%" y="-50%" width="200%" height="200%" filterUnits="objectBoundingBox" id="b"><feOffset dy="1" in="SourceAlpha" result="shadowOffsetOuter1"/><feGaussianBlur stdDeviation=".5" in="shadowOffsetOuter1" result="shadowBlurOuter1"/><feColorMatrix values="0 0 0 0 0 0 0 0 0 0 0 0 0 0 0 0 0 0 0.246376812 0" in="shadowBlurOuter1"/></filter></defs><g fill="none" fill-rule="evenodd"><rect fill="url(#a)" width="20" height="20" rx="2"/><use fill="#000" filter="url(#b)" xlink:href="#c"/><use fill="#FFF" xlink:href="#c"/></g></svg>