<svg width="16" height="16" viewBox="0 0 16 16" version="1.1" xmlns="http://www.w3.org/2000/svg"><path d="M.4 15.542V4.075A3.605 3.605 0 0 1 4 .472h7.857c1.986 0 3.6 1.616 3.6 3.603v7.864a3.605 3.605 0 0 1-3.6 3.603H.4z" fill="#e30613"/><path d="M11.929.93a3.138 3.138 0 0 1 3.128 3.13v7.865a3.138 3.138 0 0 1-3.128 3.131H.943V4.076A3.138 3.138 0 0 1 4.07.943h7.858m0-.944H4.07A4.08 4.08 0 0 0 0 4.075V16h11.929A4.08 4.08 0 0 0 16 11.925V4.06C16 1.83 14.171 0 11.929 0" fill="#fff" fill-rule="nonzero"/><path d="M4.886 3.975H8.47c1.015 0 1.8.3 2.315.8.428.444.671 1.03.671 1.73v.03c0 1.315-.786 2.116-1.9 2.43l2.172 3.046h-1.686L8.07 9.208H6.3v2.803H4.886V3.975zm3.471 3.99c1.014 0 1.657-.53 1.657-1.345v-.028c0-.858-.614-1.33-1.671-1.33H6.286v2.702h2.071z" fill="#fff" fill-rule="nonzero"/></svg>