<svg xmlns="http://www.w3.org/2000/svg" width="180" height="49" viewBox="0 0 180 49"><g fill="none" fill-rule="evenodd"><path fill="#283862" fill-rule="nonzero" d="M164.97 48.102c-4.88 0-9.342-1.671-12.566-4.705-3.357-3.16-5.131-7.468-5.131-12.459 0-4.696 1.596-9.047 4.495-12.253 3.007-3.325 7.25-5.156 11.945-5.156 4.613 0 8.788 1.74 11.755 4.9 3.33 3.547 4.908 8.646 4.456 14.381h-24.26l.034.307c.56 5.107 4.438 8.538 9.65 8.538 4.373 0 7.579-2.566 8.93-3.875l4.765 4.655c-3.178 3.501-8.541 5.667-14.072 5.667zm-1.131-28.127c-4.163 0-7.356 2.881-7.765 7.006l-.03.304h15.14l-.02-.296c-.278-4.13-3.29-7.014-7.325-7.014z"/><path fill="#283862" d="M133.884 48.102h7.652V1.503h-7.652zm-19.493 0V21.045h-11.592v27.057h-7.545V21.045h-7.485v-6.013h7.485v-9.02h7.545v9.02h11.592v-9.02h7.545v9.02h7.485v6.013h-7.485v27.057z"/><path fill="#283862" fill-rule="nonzero" d="M69.764 48.102c-4.88 0-9.343-1.671-12.566-4.705-3.357-3.16-5.132-7.468-5.132-12.459 0-4.696 1.596-9.047 4.495-12.253 3.008-3.325 7.25-5.156 11.946-5.156 4.613 0 8.788 1.74 11.755 4.9 3.33 3.547 4.907 8.646 4.456 14.381h-24.26l.033.307c.56 5.107 4.438 8.538 9.65 8.538 4.374 0 7.579-2.566 8.93-3.875l4.766 4.655c-3.178 3.501-8.542 5.667-14.073 5.667zm-1.132-28.127c-4.162 0-7.355 2.881-7.764 7.006l-.03.304h15.139l-.02-.296c-.277-4.13-3.29-7.014-7.325-7.014z"/><path fill="#A197BE" d="M39.101 9.019L16.363 40.586h10.411L49.091 9.019h-9.99"/><path fill="#283862" d="M16.363 9.019h32.728V1.503H16.363zm0 39.083h32.728v-7.516H16.363zm-14.876 0h7.439V16.535H1.487zm3.72-37.58C2.336 10.522 0 8.162 0 5.262 0 2.36 2.336 0 5.207 0c2.87 0 5.206 2.36 5.206 5.261 0 2.901-2.335 5.261-5.206 5.261z"/></g></svg>