<svg width="412" height="112" viewBox="0 0 412 112" version="1.1" xmlns="http://www.w3.org/2000/svg"><path d="M302.5 108.7V28.5c0-13.9 11.3-25.2 25.2-25.2h55c13.9 0 25.2 11.3 25.2 25.2v55c0 13.9-11.3 25.2-25.2 25.2h-80.2z" fill="#e30613"/><path d="M383.3 6.6c12.1 0 21.9 9.9 21.9 21.9v55c0 12.1-9.9 21.9-21.9 21.9h-76.9V28.5c0-12.1 9.9-21.9 21.9-21.9h55m0-6.6h-55c-15.7 0-28.5 12.8-28.5 28.5V112h83.5c15.7 0 28.5-12.8 28.5-28.5v-55C411.7 12.8 399 0 383.3 0" fill="#bc1927" fill-rule="nonzero"/><path d="M333.9 27.8H359c7.1 0 12.6 2.1 16.2 5.6 3 3.1 4.7 7.2 4.7 12.1v.2c0 9.2-5.5 14.8-13.3 17L381.8 84H370l-13.8-19.6h-12.4V84h-9.9V27.8zm24.4 27.9c7.1 0 11.6-3.7 11.6-9.4v-.2c0-6-4.3-9.3-11.7-9.3h-14.4v18.9h14.5z" fill="#fff" fill-rule="nonzero"/><g fill="#e30613"><path d="M36 105.3L22.2 85.8H9.8v19.6H0V49.2h25c3.2 0 6.1.4 8.7 1.2 2.6.8 4.8 2 6.6 3.5 1.8 1.5 3.2 3.4 4.1 5.6 1 2.2 1.4 4.7 1.4 7.4 0 4.7-1.2 8.4-3.7 11.2-2.5 2.8-5.7 4.8-9.7 5.9l15.2 21.3H36zm-.2-37.8c0-3.1-1-5.5-3.1-7-2-1.6-4.9-2.4-8.6-2.4H9.8V77h14.5c3.5 0 6.4-.9 8.4-2.6 2.1-1.7 3.1-4 3.1-6.9zm26.1 20.1c.6 3.5 2 6.1 4.2 8 2.2 1.8 4.9 2.8 8 2.8 2.4 0 4.5-.4 6.3-1.3 1.8-.9 3.5-2.1 5.2-3.8l5.7 5.1c-2 2.4-4.5 4.3-7.3 5.8-2.8 1.4-6.2 2.2-10.1 2.2-3 0-5.9-.5-8.5-1.6-2.6-1.1-4.9-2.6-6.9-4.5s-3.5-4.3-4.6-7c-1.1-2.7-1.7-5.7-1.7-9 0-3 .5-5.9 1.5-8.6 1-2.7 2.4-5.1 4.3-7.1 1.8-2 4-3.6 6.5-4.7 2.5-1.2 5.3-1.7 8.3-1.7 3.4 0 6.3.6 8.9 1.8 2.5 1.2 4.7 2.9 6.3 5 1.7 2.1 3 4.5 3.8 7.3.9 2.8 1.3 5.7 1.3 8.7v1.3c0 .4-.1.9-.1 1.4H61.9v-.1zm21.7-6.4c-.2-1.5-.5-3-1-4.4-.5-1.4-1.3-2.6-2.2-3.6-.9-1-2-1.8-3.2-2.4-1.3-.6-2.7-.8-4.3-.8-3 0-5.5 1-7.4 3.1-2 2.1-3.1 4.7-3.6 8.1h21.7z" fill-rule="nonzero"/><path d="M138.5 98.4c-1 1.2-2.1 2.2-3.3 3.2-1.2 1-2.5 1.8-3.9 2.5s-2.9 1.2-4.6 1.6c-1.7.4-3.5.6-5.6.6-3.2 0-6.1-.6-8.7-1.7-2.7-1.2-5-2.7-7-4.7s-3.5-4.3-4.6-7c-1.1-2.6-1.7-5.5-1.7-8.5s.6-5.9 1.7-8.6c1.1-2.7 2.6-5 4.6-7.1 2-2 4.3-3.6 7-4.8 2.7-1.2 5.6-1.8 8.8-1.8 4 0 7.3.7 10 2 2.6 1.3 5 3.1 6.9 5.3l-6 6.5c-1.5-1.6-3.1-2.8-4.8-3.8-1.7-1-3.8-1.5-6.2-1.5-1.8 0-3.4.4-4.9 1.1-1.5.7-2.8 1.7-3.8 2.9-1.1 1.2-1.9 2.7-2.5 4.3-.6 1.6-.9 3.4-.9 5.3s.3 3.7.9 5.4c.6 1.7 1.5 3.1 2.6 4.3 1.1 1.2 2.5 2.2 4 2.9 1.6.7 3.3 1.1 5.1 1.1 2.3 0 4.3-.5 6.1-1.5 1.7-1 3.4-2.3 4.9-3.8l5.9 5.8zm46.9 6.9h-11.2l-12.8-18.2-5.9 6.1v12.1h-9.8V46.8h9.8v35L173.1 63h11.8L168 80.2z"/><path d="M231.7 84.2c0 3-.6 5.9-1.7 8.6-1.2 2.7-2.7 5-4.7 7s-4.4 3.6-7.2 4.8c-2.8 1.2-5.8 1.8-9.1 1.8-3.2 0-6.2-.6-8.9-1.7-2.8-1.1-5.1-2.7-7.1-4.7s-3.6-4.3-4.7-7c-1.1-2.6-1.7-5.5-1.7-8.5s.6-5.9 1.7-8.6c1.1-2.7 2.7-5.1 4.7-7.1s4.4-3.6 7.1-4.8c2.8-1.2 5.8-1.8 9-1.8s6.3.6 9 1.7c2.8 1.2 5.1 2.7 7.1 4.7s3.6 4.3 4.7 7c1.2 2.7 1.8 5.5 1.8 8.6m-9.8.1c0-1.9-.3-3.6-1-5.3-.6-1.7-1.5-3.1-2.7-4.4-1.1-1.2-2.5-2.2-4.1-2.9-1.6-.7-3.3-1.1-5.2-1.1-1.9 0-3.7.4-5.2 1.1-1.5.7-2.9 1.7-4 2.9s-2 2.7-2.5 4.3c-.6 1.6-.9 3.4-.9 5.3s.3 3.6 1 5.3c.6 1.7 1.5 3.1 2.7 4.4 1.1 1.3 2.5 2.2 4.1 3 1.6.7 3.3 1.1 5.1 1.1 2 0 3.7-.4 5.3-1.1 1.6-.7 2.9-1.7 4-2.9s2-2.7 2.5-4.3c.6-1.7.9-3.5.9-5.4" fill-rule="nonzero"/><path d="M249.8 105.3H240V63h9.8l-.1 6.6c1.4-2.1 3.1-3.8 5.2-5.3s4.8-2.2 8-2.2c4.8 0 8.5 1.5 11.1 4.4 2.6 2.9 3.9 6.9 3.9 11.9v26.9h-9.8v-24c0-3.3-.8-5.9-2.3-7.6-1.6-1.8-3.8-2.7-6.6-2.7s-5.1.9-6.8 2.8c-1.7 1.8-2.6 4.4-2.6 7.7v23.8z"/></g></svg>