<svg xmlns="http://www.w3.org/2000/svg" width="180" height="49" viewBox="0 0 180 49">
  <g fill="none" fill-rule="evenodd">
    <path fill="#283862" fill-rule="nonzero" d="M164.970737,48.1017583 C160.090732,48.1017583 155.62783,46.4309059 152.404318,43.3968389 C149.047258,40.23713 147.272727,35.9289064 147.272727,30.9379669 C147.272727,26.2421011 148.869256,21.8908267 151.767787,18.6854802 C154.775087,15.3600349 159.017426,13.5286196 163.712998,13.5286196 C168.326474,13.5286196 172.501093,15.2691293 175.468291,18.4293925 C178.797544,21.9758197 180.375535,27.0746634 179.924383,32.8102159 L155.664149,32.8102159 L155.697631,33.1167452 C156.25774,38.2239034 160.135942,41.6550357 165.347927,41.6550357 C169.721356,41.6550357 172.926519,39.0893544 174.277136,37.7795376 L179.043455,42.4349393 C175.865342,45.9360985 170.501839,48.1017583 164.970737,48.1017583 Z M163.838791,19.9749726 C159.676278,19.9749726 156.48341,22.8560521 156.074442,26.9809863 L156.044365,27.284744 L171.183579,27.284744 L171.163717,26.9894856 C170.886405,22.8595626 167.874376,19.9749726 163.838791,19.9749726 Z"/>
    <polygon fill="#283862" points="133.884 48.102 141.536 48.102 141.536 1.503 133.884 1.503"/>
    <polygon fill="#283862" points="114.391 48.102 114.391 21.045 102.799 21.045 102.799 48.102 95.254 48.102 95.254 21.045 87.769 21.045 87.769 15.032 95.254 15.032 95.254 6.012 102.799 6.012 102.799 15.032 114.391 15.032 114.391 6.012 121.936 6.012 121.936 15.032 129.421 15.032 129.421 21.045 121.936 21.045 121.936 48.102"/>
    <path fill="#283862" fill-rule="nonzero" d="M69.7637292,48.1017583 C64.8838662,48.1017583 60.42111,46.4309059 57.1975666,43.3968389 C53.8406629,40.23713 52.0661157,35.9289064 52.0661157,30.9379669 C52.0661157,26.2421011 53.6624704,21.8908267 56.5610299,18.6854802 C59.5685478,15.3600349 63.8109282,13.5286196 68.506545,13.5286196 C73.120065,13.5286196 77.2947246,15.2691293 80.2617618,18.4295772 C83.5912368,21.9758197 85.1690532,27.0748482 84.717708,32.8102159 L60.4574292,32.8102159 L60.4911006,33.1167452 C61.051215,38.2239034 64.9292652,41.6550357 70.1411112,41.6550357 C74.514582,41.6550357 77.7199656,39.0893544 79.0707852,37.7795376 L83.8371498,42.4349393 C80.6586276,45.9360985 75.2950722,48.1017583 69.7637292,48.1017583 Z M68.6323392,19.9749726 C64.4695968,19.9749726 61.276509,22.8560521 60.867726,26.9809863 L60.8376486,27.284744 L75.9770088,27.284744 L75.9573354,26.9894856 C75.6798318,22.8595626 72.6677742,19.9749726 68.6323392,19.9749726 Z"/>
    <g transform="translate(15.843 1.382)">
      <polyline fill="#A197BE" points="23.258 7.637 .52 39.204 10.931 39.204 33.248 7.637 23.258 7.637"/>
      <polygon fill="#283862" points=".52 7.637 33.248 7.637 33.248 .121 .52 .121"/>
      <polygon fill="#283862" points=".52 46.72 33.248 46.72 33.248 39.204 .52 39.204"/>
    </g>
    <g fill="#283862">
      <polygon points="1.487 48.102 8.926 48.102 8.926 16.535 1.487 16.535"/>
      <path d="M5.20670009,10.5222596 C2.33558853,10.5222596 0,8.16221523 0,5.26121926 C0,2.3600444 2.33558853,0 5.20670009,0 C8.07763464,0 10.4132231,2.3600444 10.4132231,5.26121926 C10.4132231,8.16221523 8.07763464,10.5222596 5.20670009,10.5222596 Z"/>
    </g>
  </g>
</svg>
