<svg xmlns="http://www.w3.org/2000/svg" width="300" height="82" viewBox="0 0 300 82">
  <g fill="none" fill-rule="evenodd">
    <path fill="#283862" d="M274.951229,79.5151515 C266.817887,79.5151515 259.379717,76.7531302 254.007197,71.7376317 C248.412096,66.5144394 245.454545,59.392682 245.454545,51.1423535 C245.454545,43.3797998 248.115426,36.1868768 252.946312,30.8882428 C257.958478,25.3910781 265.029044,22.3636364 272.854997,22.3636364 C280.544123,22.3636364 287.501822,25.2408056 292.447151,30.4649141 C297.995907,36.3273755 300.625892,44.7560763 299.873972,54.2372957 L259.440249,54.2372957 L259.496051,54.7440074 C260.429567,63.1864526 266.893237,68.8583244 275.579878,68.8583244 C282.868926,68.8583244 288.210865,64.617096 290.461894,62.4518887 L298.405759,70.1475528 C293.108903,75.9351833 284.169731,79.5151515 274.951229,79.5151515 Z M273.064652,33.0198526 C266.12713,33.0198526 260.805684,37.7824534 260.12407,44.6012223 L260.073942,45.1033524 L285.305965,45.1033524 L285.272862,44.6152721 C284.810675,37.7882566 279.790627,33.0198526 273.064652,33.0198526 Z"/>
    <polygon fill="#283862" points="223.14 79.515 235.894 79.515 235.894 2.485 223.14 2.485"/>
    <polygon fill="#283862" points="190.652 79.515 190.652 34.788 171.332 34.788 171.332 79.515 158.757 79.515 158.757 34.788 146.281 34.788 146.281 24.848 158.757 24.848 158.757 9.939 171.332 9.939 171.332 24.848 190.652 24.848 190.652 9.939 203.226 9.939 203.226 24.848 215.702 24.848 215.702 34.788 203.226 34.788 203.226 79.515"/>
    <path fill="#283862" d="M116.272882,79.5151515 C108.139777,79.5151515 100.70185,76.7531302 95.3292777,71.7376317 C89.7344381,66.5144394 86.7768595,59.392682 86.7768595,51.1423535 C86.7768595,43.3797998 89.4374507,36.1868768 94.2683831,30.8882428 C99.280913,25.3910781 106.351547,22.3636364 114.177575,22.3636364 C121.866775,22.3636364 128.824541,25.2408056 133.769603,30.4652195 C139.318728,36.3273755 141.948422,44.7563817 141.19618,54.2372957 L100.762382,54.2372957 L100.818501,54.7440074 C101.752025,63.1864526 108.215442,68.8583244 116.901852,68.8583244 C124.19097,68.8583244 129.533276,64.617096 131.784642,62.4518887 L139.728583,70.1475528 C134.431046,75.9351833 125.491787,79.5151515 116.272882,79.5151515 Z M114.387232,33.0198526 C107.449328,33.0198526 102.127515,37.7824534 101.44621,44.6012223 L101.396081,45.1033524 L126.628348,45.1033524 L126.595559,44.6152721 C126.133053,37.7882566 121.112957,33.0198526 114.387232,33.0198526 Z"/>
    <g transform="translate(26.405 .285)">
      <polyline fill="#A197BE" points="38.764 14.624 .867 66.806 18.219 66.806 55.413 14.624 38.764 14.624"/>
      <polygon fill="#283862" points=".867 14.624 55.413 14.624 55.413 2.2 .867 2.2"/>
      <polygon fill="#283862" points=".867 79.231 55.413 79.231 55.413 66.806 .867 66.806"/>
    </g>
    <g fill="#283862">
      <polygon points="2.479 79.515 14.876 79.515 14.876 27.333 2.479 27.333"/>
      <path d="M8.67783348,17.3939394 C3.89264755,17.3939394 0,13.4926415 0,8.69711755 C0,3.90129788 3.89264755,0 8.67783348,0 C13.4627244,0 17.3553719,3.90129788 17.3553719,8.69711755 C17.3553719,13.4926415 13.4627244,17.3939394 8.67783348,17.3939394 Z"/>
    </g>
  </g>
</svg>
