<svg xmlns="http://www.w3.org/2000/svg" width="16" height="16" viewBox="0 0 16 16">
  <g fill="none" fill-rule="evenodd">
    <rect width="16" height="16" fill="#FFF" rx="2"/>
    <path fill="#8D45E6" fill-rule="nonzero" d="M5.14162175,3.11483871 C6.6581128,1.6283871 9.12241077,1.6283871 10.6546986,3.11483871 L11.6498959,4.09032258 C11.9500347,4.38451613 11.9500347,4.86451613 11.6498959,5.17419355 C11.349757,5.4683871 10.8600568,5.4683871 10.5441211,5.17419355 L9.54892388,4.19870968 C8.63271053,3.30064516 7.16360982,3.30064516 6.24739647,4.19870968 C5.33118313,5.09677419 5.33118313,6.53677419 6.24739647,7.43483871 L8.55372662,9.69548387 C8.85386548,9.98967742 8.85386548,10.4696774 8.55372662,10.7793548 C8.25358777,11.0735484 7.76388753,11.0735484 7.44795189,10.7793548 L5.14162175,8.51870968 C4.24120518,7.63612903 3.8778792,6.4283871 4.03584702,5.28258065 C4.16222127,4.49290323 4.52554726,3.71870968 5.14162175,3.11483871 Z M10.7333783,12.887076 C9.2168872,14.3709747 6.75258923,14.3709747 5.2203014,12.887076 L4.22510414,11.9132675 C3.92496529,11.6195792 3.92496529,11.1404036 4.22510414,10.8312581 C4.525243,10.5375698 5.01494323,10.5375698 5.33087887,10.8312581 L6.32607612,11.8050666 C7.24228947,12.7015887 8.71139018,12.7015887 9.62760353,11.8050666 C10.5438169,10.9085444 10.5438169,9.4710176 9.62760353,8.57449549 L7.32127338,6.30227565 C7.02113452,6.00858738 7.02113452,5.52941176 7.32127338,5.22026621 C7.62141223,4.92657793 8.11111247,4.92657793 8.42704811,5.22026621 L10.7333783,7.47702877 C11.6337948,8.3580936 11.9971208,9.56376127 11.839153,10.7075998 C11.7127787,11.5113783 11.3494527,12.2842422 10.7333783,12.887076 Z"/>
  </g>
</svg>
