<svg xmlns="http://www.w3.org/2000/svg" width="720" height="410" viewBox="0 0 720 410">
    <title>Selz</title>
    <g fill="#7959c7" fill-rule="evenodd">
        <path d="M176.607.596c21.574.08 43.336 3.86 63.395 11.897 19.803 7.932 38.41 20.673 50.118 38.82 12.202 18.92 15.868 44.02 10.91 65.854-4.56 20.062-17.05 37.437-33.173 50.075-8.568 6.72-21.392 10.32-30.666-.13-10.422-11.745-3.685-24.224 3.307-30.9 8.868-8.467 14.44-17.974 15.3-29.246.883-11.638-3.215-24.788-11.158-33.382-13.655-14.766-35.814-20.48-55.078-22.542-20.6-2.206-44.165-.288-62.398 10.368-12.275 7.177-23.328 21.226-25.068 35.643-1.653 13.738 5.772 26.55 14.694 36.366 15.693 17.264 36.697 26.93 57.48 36.552 23.646 10.95 47.63 22.087 68.186 38.356 18.2 14.405 33.724 33.457 42.235 55.224 7.584 19.388 7.65 40.884.683 60.46-7.053 19.82-20.574 36.774-36.76 49.97-17.672 14.406-37.915 24.09-60.08 29.253-21.942 5.112-44.726 6.986-67.22 5.578-19.66-1.233-39.193-5.09-57.48-12.522-19.432-7.9-38.763-20.726-50.34-38.565-11.846-18.24-15.54-40.182-12.456-61.552 1.55-10.742 4.62-21.3 8.98-31.23 1.117-2.546 2.854-5.74 3.585-7.03 4.407-7.776 15.414-10.89 22.744-8.82 10.676 3.022 16.62 13.998 14.276 24.732-.167.748-2.25 7.525-2.713 9.374-2.095 8.383-2.956 17.24-1.914 25.836 1.22 10.068 5.686 18.898 12.888 26.015 14.05 13.874 34.14 20.23 53.27 22.89 21.138 2.94 43.087 1.85 63.892-2.87 15.056-3.422 28.572-9.502 40.634-19.236 9.23-7.448 17.548-16.814 21.68-28.092 3.047-8.306 3.338-17.363.156-25.683-6.01-15.72-18.398-28.82-31.862-38.438-19.152-13.677-41.256-22.97-62.53-32.77-19.077-8.794-37.293-19.064-53.08-33.072-16.242-14.41-29.772-32.6-35.702-53.718-5.555-19.777-3.698-40.89 5.052-59.455 8.74-18.544 23.218-35.124 40.85-45.657 18.24-10.898 39.5-16.165 60.54-17.818 4.928-.386 9.878-.565 14.823-.536" />
        <path d="M358.11 190.814c19.824.16 38.872 9.847 48.906 27.268 10.62 18.45 8.574 40.74-.138 59.475-8.825 18.976-23.648 34.376-40.672 46.267-16.018 11.195-34.145 20.14-52.992 25.344 5.64 5.18 12.102 9.357 19.54 11.38 9.776 2.666 20.13 1.76 29.922-.3 19.598-4.122 39.888-12.788 54.41-26.894 9.344-9.075 17.685-19.543 20.827-32.446.15-.608 1.52-7.17 2.235-9.075 1.126-3.018 7.05-12.533 17.173-12.643 12.195-.127 16.892 8.614 17.69 10.106 2.49 4.625 2.62 9.832 2.457 15.408-.323 10.944-2.783 21.784-6.97 31.884-8.634 20.814-24.362 36.513-43.373 48.22-18.31 11.276-39.456 19.147-60.65 22.735-23.164 3.917-47.027 1.466-67.56-10.492-9.056-5.275-17.14-12.12-24.274-19.776-3.998-4.294-7.223-8.922-9.545-14.328-.498-1.16-1.347-3.695-1.77-4.884-7.742.478-17.174-5.706-19.29-14.752-2.688-11.48 5.272-20.854 14.788-23.768.06-1.567.103-3.885.21-5.452a181.694 181.694 0 0 1 4.196-28.287c4.84-21.105 13.52-41.648 26.965-58.738 12.528-15.93 29.877-28.8 49.668-33.91 5.965-1.54 12.085-2.367 18.248-2.34m-.633 47.165c-12.395.098-23.722 9.812-30.833 19.043-9.91 12.865-15.558 28.834-18.553 44.657 18.38-8.482 37.39-17.45 49.95-34.036 3.913-5.17 7.484-11.246 8.722-17.703.608-3.196.856-7.38-1.806-9.783-1.96-1.765-4.94-2.214-7.48-2.177" />
        <path d="M544.317 2.566c17.948.418 33.903 9.77 42.212 25.857 9.397 18.184 8.73 40.032 5.98 59.754-3.4 24.422-10.48 48.42-17.985 71.86-7.695 24.02-16.827 47.61-27.52 70.46-10.377 22.18-22.252 43.693-35.863 64.055-6.46 9.668-13.3 18.942-20.848 27.79-1.408 1.646-3.793 4.495-5.19 6.638.41 2.914 1.37 6.304 2.06 8.853 1.226 4.547 2.87 9.066 5.155 13.193 5.23 9.44 14.12 12.76 24.395 10.152 16.53-4.208 31.202-13.968 44.23-24.682 3.984-3.277 7.82-6.95 11.81-10.192 8.58-6.978 19.088-7.667 27.025.196 8.73 8.65 6.618 19.042.205 27.25-13.724 17.57-30.87 33.67-50.498 44.488-19.892 10.964-43.868 15.14-65.307 6.082-17.84-7.54-30.684-22.57-37.843-40.305-4.317 3.266-8.99 6.66-13.69 9.368-6.168 3.55-18.895 6.55-27.12-5.417-7.32-10.644-.71-21.62 5.46-26.96 3.356-2.9 7.005-5.94 10.233-9.037 4.21-4.047 8.243-8.28 12.125-12.644.657-.738 1.98-2.07 2.523-2.863-.046-1.32-.274-3.326-.357-4.478-.22-3.102-.394-6.204-.51-9.31a376.935 376.935 0 0 1-.212-19.404c.397-26.967 3.352-53.88 7.55-80.506 3.958-25.074 9.15-49.99 15.677-74.518 5.887-22.115 12.925-44.095 22.283-65.007 8.85-19.775 20.252-41.565 39.196-53.44 7.488-4.694 15.964-7.292 24.823-7.234m.115 47.275c-6.563 4.4-10.938 12.702-14.58 19.407-5.27 9.688-9.543 19.9-13.387 30.225-8.914 23.922-15.388 48.75-20.682 73.702-5.155 24.28-9.253 48.877-11.606 73.593-.072.806-.153 1.613-.233 2.422 12.44-21.077 23.068-43.218 32.14-65.94 9.3-23.295 17.047-47.213 23.38-71.483 3.004-11.503 5.66-23.13 6.932-34.966.807-7.522 1.357-15.563-.46-23-.314-1.28-.712-2.968-1.504-3.96" />
        <path d="M676.362 213.276c5.366.904 11.872 4.622 15.486 10.32 3.473 5.476 3.784 11.524 3.19 17.788-.883 9.39-3.343 18.712-6.928 27.424-7.17 17.418-18.147 33.056-30.698 47.004-14.095 15.673-30.38 29.39-47.696 41.377a237.182 237.182 0 0 1-4.424 3.012c19.927 4.305 39.477 5.967 58.974-1.19 8.816-3.237 19.02-10.31 23.976-14.308 4.384-3.536 15.932-10.745 25.24-2.62 10.553 9.213 5.97 19.78 2.307 24.768-3.566 4.847-8.105 9.5-12.197 13.106-16.638 14.665-37.072 24.022-58.914 27.65-23.283 3.875-46.775.716-68.968-6.908-10.668-3.666-21.004-8.268-31-13.478-5.328-2.78-11.713-5.867-14.55-11.526-2.923-5.844-4.94-13.15-2.26-19.56 2.73-6.524 6.836-11.705 13.518-14.528 5.797-2.45 11.46-5.2 17.006-8.18 9.907-5.33 19.446-11.36 28.576-17.938 18.21-13.122 35.533-28.69 48.113-47.43.746-1.11 1.472-2.224 2.18-3.362-10.62.46-21.25-.017-31.81-1.215a205.69 205.69 0 0 1-17.645-2.762c-2.276-.46-4.916-1.05-7.148-1.678-4.744-1.337-15.42-6.918-13.545-19.772 1.36-9.316 9.593-14.702 17.706-14.826 3.937-.063 10.973.648 15.253.737 5.846.122 11.695-.05 17.522-.49 9.878-.76 19.785-2.216 29.393-4.667 4.41-1.123 8.77-2.46 13.056-3.983 5.616-2 11.408-3.585 16.286-2.764z" />
    </g>
</svg>