<svg width="16" height="16" viewBox="0 0 16 16" version="1.1" xmlns="http://www.w3.org/2000/svg" xmlns:xlink="http://www.w3.org/1999/xlink">
    <path d="M0.4,15.5424486 L0.4,4.07506703 C0.4,2.08757819 2.01428572,0.471849866 4,0.471849866 L11.8571428,0.471849866 C13.8428572,0.471849866 15.4571428,2.08757819 15.4571428,4.07506703 L15.4571428,11.9392315 C15.4571428,13.9267203 13.8428572,15.5424486 11.8571428,15.5424486 L0.4,15.5424486 Z" fill="#e30613" />
    <path d="M11.9285714,0.92940125 C13.6571428,0.92940125 15.0571428,2.34495085 15.0571428,4.06076853 L15.0571428,11.924933 C15.0571428,13.6550492 13.6428572,15.0563003 11.9285714,15.0563003 L0.942857144,15.0563003 L0.942857144,4.07506703 C0.942857144,2.34495085 2.35714286,0.943699731 4.07142856,0.943699731 L11.9285714,0.943699731 M11.9285714,0 L4.07142856,0 C1.82857143,0 4.54747351e-13,1.83020554 4.54747351e-13,4.07506703 L4.54747351e-13,16 L11.9285714,16 C14.1714286,16 16,14.1697945 16,11.924933 L16,4.06076853 C16,1.83020554 14.1714286,0 11.9285714,0" fill="white" fill-rule="nonzero" />
    <path d="M4.88571428,3.97497766 L8.47142856,3.97497766 C9.48571428,3.97497766 10.2714286,4.27524575 10.7857143,4.77569259 C11.2142857,5.2189455 11.4571428,5.80518319 11.4571428,6.50580875 L11.4571428,6.53440572 C11.4571428,7.84986594 10.6714286,8.65058087 9.55714284,8.96514744 L11.7285714,12.0107239 L10.0428572,12.0107239 L8.07142856,9.20822163 L6.3,9.20822163 L6.3,12.0107239 L4.88571428,12.0107239 L4.88571428,3.97497766 Z M8.35714284,7.96425381 C9.37142856,7.96425381 10.0142857,7.43521 10.0142857,6.62019659 L10.0142857,6.59159966 C10.0142857,5.73369078 9.4,5.26184094 8.34285716,5.26184094 L6.28571428,5.26184094 L6.28571428,7.96425381 L8.35714284,7.96425381 Z" fill="white" fill-rule="nonzero" />
</svg>
