<svg width="412" height="112" viewBox="0 0 412 112" version="1.1" xmlns="http://www.w3.org/2000/svg" xmlns:xlink="http://www.w3.org/1999/xlink">
    <g transform="translate(299.000000, 0.000000)">
        <path d="M3.5,108.7 L3.5,28.5 C3.5,14.6 14.8,3.3 28.7,3.3 L83.7,3.3 C97.6,3.3 108.9,14.6 108.9,28.5 L108.9,83.5 C108.9,97.4 97.6,108.7 83.7,108.7 L3.5,108.7 Z" fill="#e30613" />
        <path d="M84.3,6.6 C96.4,6.6 106.2,16.5 106.2,28.5 L106.2,83.5 C106.2,95.6 96.3,105.4 84.3,105.4 L7.4,105.4 L7.4,28.5 C7.4,16.4 17.3,6.6 29.3,6.6 L84.3,6.6 M84.3,0 L29.3,0 C13.6,0 0.8,12.8 0.8,28.5 L0.8,112 L84.3,112 C100,112 112.8,99.2 112.8,83.5 L112.8,28.5 C112.7,12.8 100,0 84.3,0" fill="#bc1927" fill-rule="nonzero" />
        <path d="M34.9,27.8 L60,27.8 C67.1,27.8 72.6,29.9 76.2,33.4 C79.2,36.5 80.9,40.6 80.9,45.5 L80.9,45.7 C80.9,54.9 75.4,60.5 67.6,62.7 L82.8,84 L71,84 L57.2,64.4 L44.8,64.4 L44.8,84 L34.9,84 L34.9,27.8 Z M59.3,55.7 C66.4,55.7 70.9,52 70.9,46.3 L70.9,46.1 C70.9,40.1 66.6,36.8 59.2,36.8 L44.8,36.8 L44.8,55.7 L59.3,55.7 Z" fill="white" fill-rule="nonzero" />
    </g>
    <g transform="translate(0.000000, 46.000000)" fill="#e30613">
        <path d="M36,59.3 L22.2,39.8 L9.8,39.8 L9.8,59.4 L0,59.4 L0,3.2 L25,3.2 C28.2,3.2 31.1,3.6 33.7,4.4 C36.3,5.2 38.5,6.4 40.3,7.9 C42.1,9.4 43.5,11.3 44.4,13.5 C45.4,15.7 45.8,18.2 45.8,20.9 C45.8,25.6 44.6,29.3 42.1,32.1 C39.6,34.9 36.4,36.9 32.4,38 L47.6,59.3 L36,59.3 Z M35.8,21.5 C35.8,18.4 34.8,16 32.7,14.5 C30.7,12.9 27.8,12.1 24.1,12.1 L9.8,12.1 L9.8,31 L24.3,31 C27.8,31 30.7,30.1 32.7,28.4 C34.8,26.7 35.8,24.4 35.8,21.5 Z" fill-rule="nonzero" />
        <path d="M61.9,41.6 C62.5,45.1 63.9,47.7 66.1,49.6 C68.3,51.4 71,52.4 74.1,52.4 C76.5,52.4 78.6,52 80.4,51.1 C82.2,50.2 83.9,49 85.6,47.3 L91.3,52.4 C89.3,54.8 86.8,56.7 84,58.2 C81.2,59.6 77.8,60.4 73.9,60.4 C70.9,60.4 68,59.9 65.4,58.8 C62.8,57.7 60.5,56.2 58.5,54.3 C56.5,52.4 55,50 53.9,47.3 C52.8,44.6 52.2,41.6 52.2,38.3 C52.2,35.3 52.7,32.4 53.7,29.7 C54.7,27 56.1,24.6 58,22.6 C59.8,20.6 62,19 64.5,17.9 C67,16.7 69.8,16.2 72.8,16.2 C76.2,16.2 79.1,16.8 81.7,18 C84.2,19.2 86.4,20.9 88,23 C89.7,25.1 91,27.5 91.8,30.3 C92.7,33.1 93.1,36 93.1,39 C93.1,39.4 93.1,39.9 93.1,40.3 C93.1,40.7 93,41.2 93,41.7 L61.9,41.7 L61.9,41.6 Z M83.6,35.2 C83.4,33.7 83.1,32.2 82.6,30.8 C82.1,29.4 81.3,28.2 80.4,27.2 C79.5,26.2 78.4,25.4 77.2,24.8 C75.9,24.2 74.5,24 72.9,24 C69.9,24 67.4,25 65.5,27.1 C63.5,29.2 62.4,31.8 61.9,35.2 L83.6,35.2 Z" fill-rule="nonzero" />
        <path d="M138.5,52.4 C137.5,53.6 136.4,54.6 135.2,55.6 C134,56.6 132.7,57.4 131.3,58.1 C129.9,58.8 128.4,59.3 126.7,59.7 C125,60.1 123.2,60.3 121.1,60.3 C117.9,60.3 115,59.7 112.4,58.6 C109.7,57.4 107.4,55.9 105.4,53.9 C103.4,51.9 101.9,49.6 100.8,46.9 C99.7,44.3 99.1,41.4 99.1,38.4 C99.1,35.4 99.7,32.5 100.8,29.8 C101.9,27.1 103.4,24.8 105.4,22.7 C107.4,20.7 109.7,19.1 112.4,17.9 C115.1,16.7 118,16.1 121.2,16.1 C125.2,16.1 128.5,16.8 131.2,18.1 C133.8,19.4 136.2,21.2 138.1,23.4 L132.1,29.9 C130.6,28.3 129,27.1 127.3,26.1 C125.6,25.1 123.5,24.6 121.1,24.6 C119.3,24.6 117.7,25 116.2,25.7 C114.7,26.4 113.4,27.4 112.4,28.6 C111.3,29.8 110.5,31.3 109.9,32.9 C109.3,34.5 109,36.3 109,38.2 C109,40.1 109.3,41.9 109.9,43.6 C110.5,45.3 111.4,46.7 112.5,47.9 C113.6,49.1 115,50.1 116.5,50.8 C118.1,51.5 119.8,51.9 121.6,51.9 C123.9,51.9 125.9,51.4 127.7,50.4 C129.4,49.4 131.1,48.1 132.6,46.6 L138.5,52.4 Z" />
        <polygon points="185.4 59.3 174.2 59.3 161.4 41.1 155.5 47.2 155.5 59.3 145.7 59.3 145.7 0.8 155.5 0.8 155.5 35.8 173.1 17 184.9 17 168 34.2" />
        <path d="M231.7,38.2 C231.7,41.2 231.1,44.1 230,46.8 C228.8,49.5 227.3,51.8 225.3,53.8 C223.3,55.8 220.9,57.4 218.1,58.6 C215.3,59.8 212.3,60.4 209,60.4 C205.8,60.4 202.8,59.8 200.1,58.7 C197.3,57.6 195,56 193,54 C191,52 189.4,49.7 188.3,47 C187.2,44.4 186.6,41.5 186.6,38.5 C186.6,35.5 187.2,32.6 188.3,29.9 C189.4,27.2 191,24.8 193,22.8 C195,20.8 197.4,19.2 200.1,18 C202.9,16.8 205.9,16.2 209.1,16.2 C212.3,16.2 215.4,16.8 218.1,17.9 C220.9,19.1 223.2,20.6 225.2,22.6 C227.2,24.6 228.8,26.9 229.9,29.6 C231.1,32.3 231.7,35.1 231.7,38.2 M221.9,38.3 C221.9,36.4 221.6,34.7 220.9,33 C220.3,31.3 219.4,29.9 218.2,28.6 C217.1,27.4 215.7,26.4 214.1,25.7 C212.5,25 210.8,24.6 208.9,24.6 C207,24.6 205.2,25 203.7,25.7 C202.2,26.4 200.8,27.4 199.7,28.6 C198.6,29.8 197.7,31.3 197.2,32.9 C196.6,34.5 196.3,36.3 196.3,38.2 C196.3,40.1 196.6,41.8 197.3,43.5 C197.9,45.2 198.8,46.6 200,47.9 C201.1,49.2 202.5,50.1 204.1,50.9 C205.7,51.6 207.4,52 209.2,52 C211.2,52 212.9,51.6 214.5,50.9 C216.1,50.2 217.4,49.2 218.5,48 C219.6,46.8 220.5,45.3 221,43.7 C221.6,42 221.9,40.2 221.9,38.3" fill-rule="nonzero" />
        <path d="M249.8,59.3 L240,59.3 L240,17 L249.8,17 L249.7,23.6 C251.1,21.5 252.8,19.8 254.9,18.3 C257,16.8 259.7,16.1 262.9,16.1 C267.7,16.1 271.4,17.6 274,20.5 C276.6,23.4 277.9,27.4 277.9,32.4 L277.9,59.3 L268.1,59.3 L268.1,35.3 C268.1,32 267.3,29.4 265.8,27.7 C264.2,25.9 262,25 259.2,25 C256.4,25 254.1,25.9 252.4,27.8 C250.7,29.6 249.8,32.2 249.8,35.5 L249.8,59.3 Z" />
    </g>
</svg>
