<svg xmlns="http://www.w3.org/2000/svg" width="300" height="82"><g fill="none" fill-rule="evenodd"><path fill="#283862" d="M274.951 79.515c-8.133 0-15.571-2.762-20.944-7.777-5.595-5.224-8.552-12.345-8.552-20.596 0-7.762 2.66-14.955 7.491-20.254 5.012-5.497 12.083-8.524 19.909-8.524 7.69 0 14.647 2.877 19.592 8.1 5.549 5.863 8.179 14.292 7.427 23.773H259.44l.056.507c.934 8.442 7.397 14.114 16.084 14.114 7.289 0 12.63-4.24 14.882-6.406l7.944 7.696c-5.297 5.787-14.236 9.367-23.455 9.367zm-1.886-46.495c-6.938 0-12.26 4.762-12.94 11.581l-.051.502h25.232l-.033-.488c-.462-6.827-5.482-11.595-12.208-11.595zM223.14 79.515h12.754V2.485H223.14zm-32.488 0V34.788h-19.32v44.727h-12.575V34.788h-12.476v-9.94h12.476V9.939h12.575v14.909h19.32V9.939h12.574v14.909h12.476v9.94h-12.476v44.727zm-74.379 0c-8.133 0-15.571-2.762-20.944-7.777-5.595-5.224-8.552-12.345-8.552-20.596 0-7.762 2.66-14.955 7.491-20.254 5.013-5.497 12.084-8.524 19.91-8.524 7.689 0 14.647 2.877 19.592 8.101 5.549 5.862 8.178 14.291 7.426 23.772h-40.434l.057.507c.933 8.442 7.396 14.114 16.083 14.114 7.289 0 12.631-4.24 14.883-6.406l7.944 7.696c-5.298 5.787-14.237 9.367-23.456 9.367zm-1.886-46.495c-6.938 0-12.26 4.762-12.94 11.581l-.05.502h25.231l-.032-.488c-.463-6.827-5.483-11.595-12.209-11.595z"/><path fill="#A197BE" d="M65.169 14.909L27.272 67.091h17.352l37.194-52.182H65.169"/><path fill="#283862" d="M27.272 14.909h54.546V2.485H27.272zm0 64.607h54.546V67.091H27.272zm-24.793-.001h12.397V27.333H2.479zm6.199-62.121C3.893 17.394 0 13.493 0 8.697 0 3.901 3.893 0 8.678 0c4.785 0 8.677 3.901 8.677 8.697 0 4.796-3.892 8.697-8.677 8.697z"/></g></svg>