<svg xmlns="http://www.w3.org/2000/svg" width="64" height="64" viewBox="0 0 64 64">
  <g fill="none">
    <rect width="64" height="64" fill="#DBE3E8"/>
    <path fill="#FFF" d="M47.84,34.2933333 L29.7066667,16.16 C29.6,16.0533333 29.4933333,16 29.3333333,16 L16.5333333,16 C16.2133333,16 16,16.2133333 16,16.5333333 L16,29.3333333 C16,29.4933333 16.0533333,29.6 16.16,29.7066667 L34.2933333,47.84 C34.4,47.9466667 34.56,48 34.6666667,48 C34.7733333,48 34.9333333,47.9466667 35.04,47.84 L47.84,35.04 C48.0533333,34.8266667 48.0533333,34.5066667 47.84,34.2933333 Z M24,26.1333333 C22.8266667,26.1333333 21.8666667,25.1733333 21.8666667,24 C21.8666667,22.8266667 22.8266667,21.8666667 24,21.8666667 C25.1733333,21.8666667 26.1333333,22.8266667 26.1333333,24 C26.1333333,25.1733333 25.1733333,26.1333333 24,26.1333333 Z"/>
  </g>
</svg>
