<?xml version="1.0" encoding="UTF-8" standalone="no"?>
<svg width="20px" height="20px" viewBox="0 0 20 20" version="1.1" xmlns="http://www.w3.org/2000/svg" xmlns:xlink="http://www.w3.org/1999/xlink">
    <!-- Generator: Sketch 39.1 (31720) - http://www.bohemiancoding.com/sketch -->
    <title>icon</title>
    <desc>Created with Sketch.</desc>
    <defs>
        <linearGradient x1="50%" y1="100%" x2="50%" y2="0%" id="linearGradient-1">
            <stop stop-color="#703FCE" offset="0%"></stop>
            <stop stop-color="#813CC1" offset="100%"></stop>
        </linearGradient>
        <path d="M8.28161425,7.59745763 C8.44437467,7.81779771 8.65997616,8.02224482 8.92842517,8.21080508 C9.19687419,8.39936535 9.50125275,8.57838898 9.84157001,8.74788136 C10.1818873,8.91737373 10.5306544,9.09216012 10.8878818,9.27224576 C11.2451092,9.45233141 11.5938763,9.64512609 11.9341936,9.85063559 C12.2745108,10.0561451 12.5788894,10.2881343 12.8473384,10.5466102 C13.1157874,10.805086 13.3313889,11.097456 13.4941493,11.4237288 C13.6569098,11.7500016 13.7382888,12.1228793 13.7382888,12.5423729 C13.7382888,12.9237307 13.6769903,13.2743628 13.5543915,13.5942797 C13.4317928,13.9141965 13.2637504,14.2012699 13.0502595,14.4555085 C12.8367685,14.709747 12.5841766,14.9343211 12.2924761,15.1292373 C12.0007756,15.3241535 11.6858283,15.4851689 11.3476249,15.6122881 C11.0094214,15.7394074 10.654313,15.8358048 10.2822892,15.9014831 C9.91026538,15.9671613 9.5361334,16 9.15988202,16 C8.63143908,16 8.11780025,15.935382 7.61895011,15.8061441 C7.12009998,15.6769061 6.67621457,15.4819928 6.28728056,15.2213983 C5.89834656,14.9608038 5.5865699,14.6345359 5.35194124,14.2425847 C5.11731257,13.8506336 5,13.3919518 5,12.8665254 C5,12.5953376 5.04333167,12.3569926 5.12999631,12.1514831 C5.21666096,11.9459735 5.3244617,11.7743651 5.45340178,11.6366525 C5.58234185,11.49894 5.72290557,11.3951275 5.87509713,11.3252119 C6.0272887,11.2552963 6.16890928,11.220339 6.29996313,11.220339 C6.43524452,11.220339 6.54832962,11.2574149 6.6392218,11.3315678 C6.73011399,11.4057207 6.7755594,11.5211857 6.7755594,11.6779661 C6.7755594,11.7500004 6.76710444,11.8262708 6.75019427,11.9067797 C6.73328409,11.9872885 6.7153173,12.0752114 6.69629336,12.1705508 C6.67726941,12.2658903 6.65930262,12.3707621 6.64239244,12.4851695 C6.62548227,12.5995768 6.61702731,12.7245756 6.61702731,12.8601695 C6.61702731,13.1567811 6.68466699,13.4131345 6.81994838,13.6292373 C6.95522978,13.8453401 7.13489768,14.0233044 7.35895749,14.1631356 C7.58301729,14.3029668 7.84089358,14.4067793 8.13259408,14.4745763 C8.42429459,14.5423732 8.72655941,14.5762712 9.03939763,14.5762712 C9.40719392,14.5762712 9.77498469,14.5317801 10.142781,14.4427966 C10.5105773,14.3538131 10.8403207,14.2224585 11.1320212,14.0487288 C11.4237217,13.8749991 11.6604606,13.6620775 11.842245,13.4099576 C12.0240293,13.1578377 12.1149202,12.8686457 12.1149202,12.5423729 C12.1149202,12.2415239 12.0335412,11.9724588 11.8707807,11.7351695 C11.7080203,11.4978802 11.4924188,11.2786027 11.2239698,11.0773305 C10.9555208,10.8760583 10.6500854,10.6864416 10.3076543,10.5084746 C9.96522332,10.3305076 9.61645621,10.1504246 9.26134256,9.96822034 C8.9062289,9.78601604 8.5574618,9.59428067 8.21503077,9.39300847 C7.87259975,9.19173628 7.56716431,8.97034019 7.29871529,8.72881356 C7.03026628,8.48728693 6.8146648,8.21716251 6.65190437,7.9184322 C6.48914394,7.6197019 6.40776495,7.27966292 6.40776495,6.89830508 C6.40776495,6.5423711 6.49337142,6.19173901 6.66458694,5.84639831 C6.83580245,5.5010576 7.09367874,5.19173865 7.43822353,4.9184322 C7.78276833,4.64512575 8.21291443,4.42372966 8.72867474,4.25423729 C9.24443505,4.08474492 9.8489647,4 10.5422818,4 C10.9819464,4 11.4120925,4.06567731 11.832733,4.1970339 C12.2533736,4.32839049 12.6285625,4.5148293 12.9583109,4.75635593 C13.2880593,4.99788256 13.5533337,5.28601528 13.754142,5.62076271 C13.9549503,5.95551015 14.0553529,6.32626915 14.0553529,6.73305085 C14.0553529,6.97457748 14.014135,7.22245636 13.9316979,7.47669492 C13.8492608,7.73093347 13.7171521,7.99576133 13.5353677,8.27118644 C13.3578109,8.53813693 13.1644036,8.73622817 12.9551402,8.8654661 C12.7458768,8.99470404 12.5566971,9.05932203 12.3875954,9.05932203 C12.2607691,9.05932203 12.1571958,9.02224613 12.0768725,8.94809322 C11.9965491,8.87394031 11.9563881,8.76271261 11.9563881,8.61440678 C11.9563881,8.50423674 11.981753,8.37394143 12.0324835,8.22351695 C12.083214,8.07309247 12.1698773,7.9004247 12.2924761,7.70550847 C12.4066198,7.51906686 12.4911694,7.34428048 12.5461274,7.18114407 C12.6010855,7.01800766 12.6285641,6.86652612 12.6285641,6.72669492 C12.6285641,6.51059214 12.5704363,6.32097539 12.4541788,6.15783898 C12.3379214,5.99470257 12.1772771,5.8580514 11.9722413,5.74788136 C11.7672054,5.63771131 11.5209547,5.55508502 11.2334817,5.5 C10.9460088,5.44491498 10.6310615,5.41737288 10.2886305,5.41737288 C9.90815158,5.41737288 9.57735126,5.46080465 9.29621962,5.54766949 C9.01508797,5.63453433 8.78046283,5.74682135 8.59233714,5.8845339 C8.40421146,6.02224645 8.26470461,6.17584661 8.17381243,6.34533898 C8.08292024,6.51483136 8.03747483,6.68220256 8.03747483,6.84745763 C8.03747483,7.12712004 8.11885382,7.37711754 8.28161425,7.59745763 Z" id="path-2"></path>
        <filter x="-50%" y="-50%" width="200%" height="200%" filterUnits="objectBoundingBox" id="filter-3">
            <feOffset dx="0" dy="1" in="SourceAlpha" result="shadowOffsetOuter1"></feOffset>
            <feGaussianBlur stdDeviation="0.5" in="shadowOffsetOuter1" result="shadowBlurOuter1"></feGaussianBlur>
            <feColorMatrix values="0 0 0 0 0   0 0 0 0 0   0 0 0 0 0  0 0 0 0.246376812 0" type="matrix" in="shadowBlurOuter1"></feColorMatrix>
        </filter>
    </defs>
    <g id="Page-1" stroke="none" stroke-width="1" fill="none" fill-rule="evenodd">
        <g id="20x20">
            <rect id="Background" fill="url(#linearGradient-1)" x="0" y="0" width="20" height="20" rx="2"></rect>
            <g id="S">
                <use fill="black" fill-opacity="1" filter="url(#filter-3)" xlink:href="#path-2"></use>
                <use fill="#FFFFFF" fill-rule="evenodd" xlink:href="#path-2"></use>
            </g>
        </g>
    </g>
</svg>