<svg xmlns="http://www.w3.org/2000/svg" xmlns:xlink="http://www.w3.org/1999/xlink" width="16" height="16" viewBox="0 0 16 16"><defs><linearGradient id="icon-16x16-a" x1="50%" x2="50%" y1="100%" y2="0%"><stop offset="0%" stop-color="#703FCE"/><stop offset="100%" stop-color="#813CC1"/></linearGradient><path id="icon-16x16-c" d="M6.9 5.998c.143.183.333.354.57.511.238.157.507.306.807.448.301.14.61.286.925.437.315.15.623.31.924.482.3.17.57.364.807.58.237.215.427.459.571.73.144.272.216.583.216.933 0 .317-.054.61-.163.876a2.468 2.468 0 0 1-.445.718 3.107 3.107 0 0 1-.67.561 4.177 4.177 0 0 1-.834.403 5.528 5.528 0 0 1-.941.24 5.903 5.903 0 0 1-2.353-.079 3.931 3.931 0 0 1-1.177-.487 2.62 2.62 0 0 1-.826-.816A2.094 2.094 0 0 1 4 10.39a1.429 1.429 0 0 1 .4-1.025c.114-.115.239-.201.373-.26a.95.95 0 0 1 .375-.087c.12 0 .22.03.3.093.08.061.12.158.12.288 0 .06-.007.124-.022.191l-.047.22c-.017.08-.033.167-.048.262s-.022.2-.022.312c0 .248.06.461.179.641.12.18.278.329.476.445.198.117.426.203.684.26.257.056.524.085.8.085.326 0 .65-.038.975-.112a3.25 3.25 0 0 0 .874-.328 2.03 2.03 0 0 0 .628-.532c.16-.21.24-.451.24-.723 0-.251-.071-.475-.215-.673a2.434 2.434 0 0 0-.571-.548 5.893 5.893 0 0 0-.81-.474c-.302-.149-.61-.299-.924-.45a18.764 18.764 0 0 1-.925-.48 4.972 4.972 0 0 1-.81-.553 2.574 2.574 0 0 1-.57-.676 1.669 1.669 0 0 1-.216-.85c0-.296.075-.589.227-.876.15-.288.379-.546.683-.774a3.735 3.735 0 0 1 1.14-.553C7.75 3.07 8.284 3 8.896 3c.389 0 .769.055 1.14.164.372.11.703.265.995.466.291.202.525.442.703.72.177.28.266.589.266.928a1.9 1.9 0 0 1-.11.62 2.66 2.66 0 0 1-.35.661 1.673 1.673 0 0 1-.512.496c-.185.107-.352.161-.501.161a.403.403 0 0 1-.275-.093c-.07-.061-.106-.154-.106-.278 0-.091.022-.2.067-.325.045-.126.121-.27.23-.432.1-.155.175-.301.224-.437.048-.136.072-.262.072-.379a.765.765 0 0 0-.154-.474 1.203 1.203 0 0 0-.425-.341 2.38 2.38 0 0 0-.653-.207 4.703 4.703 0 0 0-.835-.069 3.15 3.15 0 0 0-.876.109 2.148 2.148 0 0 0-.622.28c-.167.115-.29.243-.37.384a.842.842 0 0 0-.12.419c0 .233.071.441.215.625z"/><filter id="icon-16x16-b" width="150%" height="140%" x="-25%" filterUnits="objectBoundingBox"><feOffset dy="1" in="SourceAlpha" result="shadowOffsetOuter1"/><feGaussianBlur in="shadowOffsetOuter1" result="shadowBlurOuter1" stdDeviation=".5"/><feColorMatrix in="shadowBlurOuter1" values="0 0 0 0 0 0 0 0 0 0 0 0 0 0 0 0 0 0 0.246376812 0"/></filter></defs><g fill="none" fill-rule="evenodd"><rect width="16" height="16" fill="url(#icon-16x16-a)" rx="2"/><use fill="#000" filter="url(#icon-16x16-b)" xlink:href="#icon-16x16-c"/><use fill="#FFF" xlink:href="#icon-16x16-c"/></g></svg>