<svg xmlns="http://www.w3.org/2000/svg" width="100" height="57" viewBox="0 0 100 57"><g fill="#7959C7" fill-rule="evenodd"><path d="M24.529.083c2.996.011 6.019.536 8.805 1.654 2.75 1.103 5.334 2.874 6.96 5.397 1.695 2.63 2.204 6.12 1.516 9.155-.634 2.79-2.368 5.205-4.608 6.962-1.19.934-2.97 1.434-4.259-.018-1.447-1.633-.512-3.368.46-4.296 1.231-1.177 2.005-2.499 2.125-4.066.122-1.618-.447-3.446-1.55-4.641-1.897-2.053-4.974-2.847-7.65-3.134-2.861-.307-6.134-.04-8.666 1.441-1.705.998-3.24 2.951-3.482 4.956-.23 1.91.802 3.69 2.04 5.055 2.18 2.4 5.098 3.744 7.984 5.082 3.284 1.522 6.615 3.07 9.47 5.333 2.528 2.002 4.684 4.65 5.866 7.677 1.054 2.695 1.063 5.684.095 8.405-.98 2.756-2.857 5.113-5.105 6.947-2.455 2.003-5.266 3.35-8.345 4.067a32.33 32.33 0 0 1-9.336.776c-2.73-.172-5.443-.708-7.983-1.741-2.7-1.098-5.384-2.881-6.992-5.361C.23 47.197-.284 44.145.144 41.175a16.819 16.819 0 0 1 1.247-4.341c.156-.354.397-.798.498-.978.612-1.08 2.141-1.514 3.16-1.226 1.482.42 2.308 1.946 1.982 3.438-.023.104-.313 1.047-.377 1.304-.29 1.165-.41 2.396-.266 3.591.17 1.4.79 2.628 1.79 3.617 1.952 1.929 4.742 2.813 7.399 3.182 2.936.41 5.984.258 8.874-.399 2.09-.475 3.968-1.32 5.643-2.674 1.282-1.035 2.438-2.337 3.012-3.905.423-1.155.463-2.414.021-3.57-.835-2.186-2.555-4.008-4.425-5.345-2.66-1.901-5.73-3.193-8.685-4.556-2.65-1.222-5.18-2.65-7.372-4.597-2.256-2.004-4.135-4.533-4.959-7.468a11.878 11.878 0 0 1 .702-8.266c1.214-2.578 3.225-4.883 5.674-6.348C16.595 1.12 19.548.387 22.47.157a24.51 24.51 0 0 1 2.059-.074"/><path d="M49.737 26.528c2.754.022 5.4 1.369 6.793 3.79 1.475 2.566 1.19 5.665-.02 8.27-1.225 2.637-3.284 4.778-5.648 6.431-2.225 1.557-4.742 2.8-7.36 3.524.783.72 1.68 1.3 2.714 1.582 1.358.37 2.796.245 4.156-.042 2.722-.573 5.54-1.778 7.557-3.739 1.297-1.261 2.456-2.717 2.892-4.51.021-.085.211-.997.31-1.262.157-.42.98-1.742 2.386-1.758 1.694-.017 2.346 1.198 2.457 1.405.346.643.364 1.367.341 2.142a12.594 12.594 0 0 1-.968 4.433c-1.2 2.894-3.384 5.076-6.024 6.704a23.854 23.854 0 0 1-8.424 3.16c-3.217.545-6.531.204-9.383-1.458-1.258-.734-2.38-1.685-3.371-2.75-.556-.597-1.004-1.24-1.326-1.992-.07-.16-.187-.513-.246-.679-1.075.067-2.385-.793-2.68-2.05-.372-1.596.733-2.9 2.055-3.305.008-.218.014-.54.029-.758.09-1.324.286-2.639.583-3.932.672-2.934 1.877-5.79 3.745-8.166 1.74-2.215 4.15-4.004 6.898-4.715a9.953 9.953 0 0 1 2.535-.325m-.088 6.557c-1.722.014-3.295 1.364-4.283 2.648-1.376 1.788-2.16 4.008-2.576 6.208 2.552-1.18 5.193-2.426 6.937-4.732.544-.719 1.04-1.563 1.211-2.461.085-.444.12-1.026-.25-1.36-.273-.245-.687-.308-1.04-.303"/><path d="M75.6.357c2.492.058 4.708 1.358 5.862 3.594 1.305 2.529 1.213 5.566.83 8.308-.471 3.395-1.455 6.731-2.497 9.99a82.527 82.527 0 0 1-3.822 9.796c-1.441 3.083-3.09 6.074-4.981 8.905a41.085 41.085 0 0 1-2.896 3.863c-.195.23-.527.625-.72.923.056.405.19.877.286 1.231.17.632.398 1.26.715 1.834.727 1.313 1.962 1.774 3.389 1.412 2.296-.585 4.333-1.942 6.143-3.432.553-.455 1.086-.966 1.64-1.417 1.192-.97 2.651-1.066 3.753.027 1.213 1.203.92 2.648.029 3.789-1.906 2.443-4.288 4.68-7.014 6.185-2.762 1.524-6.092 2.105-9.07.845-2.478-1.048-4.262-3.137-5.256-5.603-.6.454-1.249.926-1.901 1.302-.857.494-2.625.911-3.767-.753-1.017-1.48-.099-3.005.758-3.748.466-.403.973-.826 1.421-1.256a31.176 31.176 0 0 0 1.685-1.758c.09-.103.275-.288.35-.398-.006-.184-.038-.462-.05-.623-.03-.43-.054-.862-.07-1.294a52.454 52.454 0 0 1-.03-2.698c.055-3.749.466-7.49 1.049-11.192.55-3.486 1.27-6.95 2.177-10.36.818-3.074 1.795-6.13 3.095-9.037 1.23-2.75 2.813-5.779 5.444-7.43C73.192.71 74.369.35 75.599.357m.016 6.572c-.911.612-1.519 1.766-2.025 2.698-.732 1.347-1.325 2.767-1.859 4.202-1.238 3.326-2.137 6.777-2.872 10.246-.716 3.376-1.286 6.796-1.612 10.232l-.033.336c1.728-2.93 3.204-6.008 4.464-9.167a84.072 84.072 0 0 0 3.247-9.938c.418-1.599.787-3.215.963-4.86.112-1.047.189-2.165-.064-3.198-.043-.178-.099-.413-.209-.551"/><path d="M93.94 29.65c.744.126 1.648.643 2.15 1.435.482.762.526 1.602.443 2.473a13.393 13.393 0 0 1-.962 3.813c-.996 2.421-2.52 4.595-4.264 6.535-1.957 2.178-4.22 4.085-6.624 5.752a32.94 32.94 0 0 1-.615.419c2.768.598 5.483.83 8.191-.166 1.225-.45 2.642-1.433 3.33-1.989.61-.491 2.213-1.494 3.506-.364 1.465 1.28.829 2.75.32 3.443a12.093 12.093 0 0 1-1.694 1.822c-2.31 2.04-5.149 3.34-8.182 3.844-3.234.539-6.497.1-9.58-.96a31.443 31.443 0 0 1-4.305-1.874c-.74-.386-1.627-.815-2.02-1.602-.407-.813-.687-1.828-.315-2.72.38-.907.95-1.627 1.878-2.02.805-.34 1.592-.722 2.362-1.137 1.376-.74 2.7-1.579 3.969-2.493 2.529-1.825 4.935-3.989 6.682-6.594.104-.155.205-.31.303-.468a28.293 28.293 0 0 1-4.418-.169 28.1 28.1 0 0 1-2.45-.384 14.369 14.369 0 0 1-.994-.233c-.658-.186-2.141-.962-1.88-2.749.188-1.295 1.332-2.044 2.458-2.06.547-.01 1.524.09 2.119.102.812.017 1.624-.007 2.433-.068a23.97 23.97 0 0 0 4.083-.65 20.594 20.594 0 0 0 1.813-.553c.78-.278 1.585-.498 2.262-.384z"/></g></svg>